<svg id="Layer_1" data-name="Layer 1" xmlns="http://www.w3.org/2000/svg" viewBox="0 0 274.63 51.46"><defs><style>.cls-1{fill:#fff;}.cls-2{fill:#f06543;}</style></defs><title>Artboard 1 copy 2</title><path class="cls-1" d="M0,6.45A5.42,5.42,0,0,1,5.46,1H19.35C35,1,45.72,11.7,45.72,25.66v.14c0,14-10.77,24.81-26.37,24.81H5.46A5.41,5.41,0,0,1,0,45.16ZM19.35,40.76c8.93,0,15-6,15-14.81V25.8c0-8.79-6-14.95-15-14.95H10.92V40.76Z"/><path class="cls-1" d="M54.65,29.35V21.7a5.46,5.46,0,1,1,10.92,0v7.36c0,8.09,4,12.27,10.7,12.27S87,37.29,87,29.42V21.7a5.46,5.46,0,1,1,10.92,0V29c0,15-8.43,22.4-21.76,22.4S54.65,44,54.65,29.35Z"/><path class="cls-1" d="M106.82,26V25.8C106.82,11.7,118,.14,133.26.14s26.3,11.42,26.3,25.52v.14c0,14.11-11.13,25.66-26.44,25.66S106.82,40.05,106.82,26Zm41.33,0V25.8c0-8.5-6.24-15.59-15-15.59s-14.89,7-14.89,15.45v.14c0,8.51,6.24,15.6,15,15.6S148.15,34.45,148.15,26Z"/><circle class="cls-1" cx="60.11" cy="5.46" r="5.46"/><circle class="cls-1" cx="92.43" cy="5.46" r="5.46"/><path class="cls-2" d="M170.3,2.57a2.09,2.09,0,0,1,2.1-2.1h5.33c6,0,10.13,4.11,10.13,9.47V10c0,5.36-4.14,9.52-10.13,9.52H172.4a2.08,2.08,0,0,1-2.1-2.09Zm7.43,13.17a5.43,5.43,0,0,0,5.75-5.69V10a5.48,5.48,0,0,0-5.75-5.75H174.5V15.74Z"/><path class="cls-2" d="M191.58,17.43V2.57a2.09,2.09,0,0,1,2.1-2.1h10.56a1.88,1.88,0,0,1,1.88,1.88,1.87,1.87,0,0,1-1.88,1.85h-8.49V8.06H203a1.88,1.88,0,0,1,1.88,1.88A1.85,1.85,0,0,1,203,11.79h-7.26v4h8.63a1.88,1.88,0,0,1,1.87,1.88,1.85,1.85,0,0,1-1.87,1.85h-10.7A2.08,2.08,0,0,1,191.58,17.43Z"/><path class="cls-2" d="M209.43,17.51a2,2,0,0,1-.79-1.58,1.93,1.93,0,0,1,2-1.93,2,2,0,0,1,1.2.38,8,8,0,0,0,4.87,1.71c1.72,0,2.75-.68,2.75-1.79v-.06c0-1.06-.65-1.6-3.84-2.42-3.83-1-6.31-2-6.31-5.82V5.94c0-3.46,2.78-5.74,6.67-5.74a11.06,11.06,0,0,1,6,1.69,1.91,1.91,0,0,1,.93,1.66,1.94,1.94,0,0,1-2,1.93,2.05,2.05,0,0,1-1.07-.3,7.86,7.86,0,0,0-4-1.28c-1.6,0-2.45.73-2.45,1.66v.05c0,1.26.82,1.66,4.11,2.51,3.87,1,6.05,2.39,6.05,5.71v.06c0,3.78-2.89,5.9-7,5.9A12.35,12.35,0,0,1,209.43,17.51Z"/><path class="cls-2" d="M227.42,2.4a2.1,2.1,0,0,1,4.19,0V17.59a2.1,2.1,0,1,1-4.19,0Z"/><path class="cls-2" d="M235.53,10.05V10a9.78,9.78,0,0,1,10-9.86A10.59,10.59,0,0,1,252,2a2.11,2.11,0,0,1,.87,1.69,2.06,2.06,0,0,1-2.07,2.07,2.09,2.09,0,0,1-1.28-.43A6.62,6.62,0,0,0,245.38,4a5.72,5.72,0,0,0-5.47,5.93V10a5.71,5.71,0,0,0,5.77,6,6.74,6.74,0,0,0,3.95-1.14V12.17h-2.84A1.8,1.8,0,0,1,245,10.38a1.83,1.83,0,0,1,1.82-1.83h4.8a2.08,2.08,0,0,1,2.09,2.1v4.63a2.82,2.82,0,0,1-1.47,2.66,12.6,12.6,0,0,1-6.67,1.91C239.61,19.85,235.53,15.68,235.53,10.05Z"/><path class="cls-2" d="M257.7,2.46a2.09,2.09,0,0,1,2.1-2.1h.44a2.58,2.58,0,0,1,2.17,1.23L270.5,12.2V2.38a2.07,2.07,0,1,1,4.13,0V17.54a2.07,2.07,0,0,1-2.09,2.09h-.14a2.61,2.61,0,0,1-2.18-1.22l-8.38-11V17.62a2.07,2.07,0,1,1-4.14,0Z"/><path class="cls-2" d="M201.91,32.53a2.08,2.08,0,0,1,2.09-2.1h5.34c6,0,10.12,4.11,10.12,9.47V40c0,5.36-4.13,9.52-10.12,9.52H204a2.07,2.07,0,0,1-2.09-2.09Zm7.43,13.17A5.42,5.42,0,0,0,215.08,40v0a5.47,5.47,0,0,0-5.74-5.75H206.1V45.7Z"/><path class="cls-2" d="M223.19,47.39V32.53a2.08,2.08,0,0,1,2.09-2.1h10.56a1.88,1.88,0,0,1,1.88,1.88,1.86,1.86,0,0,1-1.88,1.85h-8.49V38h7.27a1.88,1.88,0,0,1,1.88,1.87,1.86,1.86,0,0,1-1.88,1.85h-7.27v4H236a1.89,1.89,0,0,1,1.88,1.88A1.86,1.86,0,0,1,236,49.48h-10.7A2.07,2.07,0,0,1,223.19,47.39Z"/><path class="cls-2" d="M246.51,48.12l-6.18-14.78a2.5,2.5,0,0,1-.25-1,2.06,2.06,0,0,1,2.1-2.07,2.16,2.16,0,0,1,2.12,1.47l4.77,12.33,4.81-12.47a2.18,2.18,0,0,1,2-1.33,2,2,0,0,1,2.07,2,2.45,2.45,0,0,1-.22.93l-6.23,14.91a2.46,2.46,0,0,1-2.37,1.66h-.27A2.44,2.44,0,0,1,246.51,48.12Z"/><path class="cls-2" d="M186.78,49.09l-1.94-2A10.25,10.25,0,0,1,178,49.81c-4.42,0-7.74-2.57-7.74-6.66v-.06c0-2.94,1.58-5,4.48-6.33a7.46,7.46,0,0,1-1.62-4.62v-.06c0-3.17,2.54-6.07,7-6.07,3.92,0,6.49,2.57,6.49,5.81v.06c0,3.1-2,4.91-4.81,6l3,3c.53-.79,1-1.61,1.52-2.5a2.17,2.17,0,0,1,1.88-1.16,2.13,2.13,0,0,1,2.11,2.11,2,2,0,0,1-.3,1.06c-.66,1.15-1.42,2.34-2.21,3.46L189.91,46a2.21,2.21,0,0,1,.76,1.64,2.16,2.16,0,0,1-2.21,2.21A2.13,2.13,0,0,1,186.78,49.09Zm-4.84-4.81-4.42-4.45a3.47,3.47,0,0,0-2.18,3.06V43c0,1.61,1.36,2.7,3.23,2.7A5.44,5.44,0,0,0,181.94,44.28Zm.23-12.1v-.07A2,2,0,0,0,180,30a2.17,2.17,0,0,0-2.24,2.34v.07a4.11,4.11,0,0,0,1.35,2.86C181.11,34.49,182.17,33.66,182.17,32.18Z"/></svg>